<svg id="e4IQ6U8fE2R1" xmlns="http://www.w3.org/2000/svg" xmlns:xlink="http://www.w3.org/1999/xlink" viewBox="0 0 640 480" shape-rendering="geometricPrecision" text-rendering="geometricPrecision"><defs><linearGradient id="e4IQ6U8fE2R2-fill" x1="0.98554" y1="0.977273" x2="-0.01446" y2="0" spreadMethod="pad" gradientUnits="objectBoundingBox" gradientTransform="translate(0 0)"><stop id="e4IQ6U8fE2R2-fill-0" offset="7%" stop-color="#ff008c"/><stop id="e4IQ6U8fE2R2-fill-1" offset="32.3915%" stop-color="#ff008c"/><stop id="e4IQ6U8fE2R2-fill-2" offset="64.0963%" stop-color="#f281c6"/><stop id="e4IQ6U8fE2R2-fill-3" offset="94.2024%" stop-color="#e7ebf6"/></linearGradient><linearGradient id="e4IQ6U8fE2R3-fill" x1="0" y1="0" x2="0.819869" y2="0.969597" spreadMethod="pad" gradientUnits="objectBoundingBox" gradientTransform="translate(0 0)"><stop id="e4IQ6U8fE2R3-fill-0" offset="0%" stop-color="#fdfffe"/><stop id="e4IQ6U8fE2R3-fill-1" offset="44%" stop-color="#ff008c"/></linearGradient></defs><rect width="470" height="440" rx="20" ry="20" transform="translate(76.796116 20)" fill="url(#e4IQ6U8fE2R2-fill)" fill-rule="evenodd" stroke-width="0"/><path d="M220,140c0,36,0,120,0,120v110v60h80v-60-70-100c0,0,0-60,0-70c0-40.00016,160.000001-30.000149,160-10.00013C459.999999,140,460,200,460,200v100c0,0,0,50.0001,0,70c0,30.00015-60.007198,30.00015-100,0-39.988003-19.9999-39.988003,70.00019,0,60c39.992802-19.99984,70.897095-7.281543,100,0c39.968807,10.00019,80,0,80,0v-60-70-100c0,0-.000001-80.00013,0-80.00013c69.942414,0,69.942414-49.99987,19.954411-60.00006-19.566715-3.914357-49.988003-20.00002-99.954411,0C399.992801,89.99984,342.923059,91.485136,300,70c-19.978405-10.00019-80-24.000001-80,0c0,9.99983,0,49,0,70Z" transform="matrix(1.00024 0 0 0.999999-87.629484-2.400892)" opacity="0.99" paint-order="fill markers stroke" fill="url(#e4IQ6U8fE2R3-fill)" stroke="#fff" stroke-width="4" stroke-linecap="round" stroke-dashoffset="4"/></svg>