<svg id="eYUqHcQjeNm1" xmlns="http://www.w3.org/2000/svg" xmlns:xlink="http://www.w3.org/1999/xlink" viewBox="0 0 640 480" shape-rendering="geometricPrecision" text-rendering="geometricPrecision"><defs><linearGradient id="eYUqHcQjeNm2-fill" x1="0.851151" y1="0.977273" x2="0.12766" y2="0.045455" spreadMethod="pad" gradientUnits="objectBoundingBox" gradientTransform="translate(0 0)"><stop id="eYUqHcQjeNm2-fill-0" offset="0%" stop-color="#187480"/><stop id="eYUqHcQjeNm2-fill-1" offset="0%" stop-color="#187480"/><stop id="eYUqHcQjeNm2-fill-2" offset="23.7489%" stop-color="#4c949e"/><stop id="eYUqHcQjeNm2-fill-3" offset="100%" stop-color="#e7f4f6"/></linearGradient></defs><rect width="470" height="440" rx="20" ry="20" transform="translate(80 20)" fill="url(#eYUqHcQjeNm2-fill)" fill-rule="evenodd" stroke-width="0"/><path d="M220,140c0,36,0,120,0,120v110v60h80v-60-70-100c0,0,0-60,0-70c0-40.00016,160.000001-30.000149,160-10.00013C459.999999,140,460,200,460,200v100c0,0,0,50.0001,0,70c0,30.00015-60.007198,30.00015-100,0-39.988003-19.9999-39.988003,70.00019,0,60c39.992802-19.99984,70.897095-7.281543,100,0c39.968807,10.00019,80,0,80,0v-60-70-100c0,0-.000001-80.00013,0-80.00013c69.942414,0,69.942414-49.99987,19.954411-60.00006-19.566715-3.914357-49.988003-20.00002-99.954411,0C399.992801,89.99984,342.923059,91.485136,300,70c-19.978405-10.00019-80-24.000001-80,0c0,9.99983,0,49,0,70Z" transform="matrix(1.00024 0 0 0.999999-87.629484-2.400892)" opacity="0.99" paint-order="fill markers stroke" fill="#187480" stroke="#e7f4f6" stroke-width="4" stroke-linecap="round" stroke-dashoffset="4"/></svg>